# xmcd CD database file
#
# Track frame offsets:
#	150
#	28538
#	49585
#	101400
#	128925
#	158088
#	179850
#	190388
#	203663
#	247963
#
# Disc length: 3446 seconds
#
# Revision: 0
# Processed by: cddbd v1.5.1PL2 Copyright (c) Steve Scherf et al.
# Submitted via: CDex 1.50beta9
#
DISCID=840d740a
DTITLE=Various Artist - Jazz - America's Art form
DYEAR=1998
DGENRE=Blues
TTITLE0=Four (take one) -Miles Davis
TTITLE1=Ornithology - Charlie Parker
TTITLE2=Man Made Miles - John Coltrane
TTITLE3=Study in Soulphony - Dizzie Gillespie
TTITLE4=Just Friends - Sonny Stitt
TTITLE5=I Only Have Eyes for You - Lionel Hampton
TTITLE6=Theme - Charlie Parker and Miles Davis
TTITLE7=Stardust - Erroll Garner
TTITLE8=Witchcraft - George Benson
TTITLE9=On Green Dolphin Street - Eddie Harris
EXTD=YEAR: 1998
EXTT0=
EXTT1=
EXTT2=
EXTT3=
EXTT4=
EXTT5=
EXTT6=
EXTT7=
EXTT8=
EXTT9=
PLAYORDER=
